# xmcd CD database file
#
# Track frame offsets:
#	150
#	12775
#	24867
#	39135
#	51982
#	64175
#	75140
#	87840
#	100312
#	110967
#	123162
#	134797
#	148692
#	168742
#	182452
#	209175
#	220992
#	251130
#
# Disc length: 3609 seconds
#
# Revision: 4
# Processed by: cddbd v1.5.2PL0 Copyright (c) Steve Scherf et al.
# Submitted via: CDex 1.51
#
DISCID=030e1712
DTITLE=Willie Dixon - The Chess Box Willie Dixon (Disc-2)
DYEAR=1988
DGENRE=Blues
TTITLE0=Spoonful - Howlin' Wolf
TTITLE1=You Know My Love - Otis Rush
TTITLE2=You Can't Judge A Book By It's Cover - Bo Diddley
TTITLE3=I Ain't Superstitious - Howlin' Wolf
TTITLE4=You Need Love - Muddy Waters
TTITLE5=Little Red Rooster - Howlin' Wolf
TTITLE6=Back Door Man - Howlin' Wolf
TTITLE7=Dead Presidents - Little Walter
TTITLE8=Hidden Charms - Howlin' Wolf
TTITLE9=You Shook Me - Muddy Waters
TTITLE10=Bring It On Home - Sonny Boy Williamson
TTITLE11=300 Pounds Of Joy - Howlin' Wolf
TTITLE12=Weak Brain, Narrow Mind - Willie Dixon
TTITLE13=Wang Dang Doodle - Koko Taylor
TTITLE14=The Same Thing - Muddy Waters
TTITLE15=Built For Comfort - Howlin' Wolf
TTITLE16=I Can't Quit You Baby - Little Milton
TTITLE17=Insane Asylum - Koko Taylor
EXTD=YEAR: 1988
EXTT0=
EXTT1=
EXTT2=
EXTT3=
EXTT4=
EXTT5=
EXTT6=
EXTT7=
EXTT8=
EXTT9=
EXTT10=
EXTT11=
EXTT12=
EXTT13=
EXTT14=
EXTT15=
EXTT16=
EXTT17=
PLAYORDER=
